<svg width="546" height="543" viewBox="0 0 546 543" fill="none" xmlns="http://www.w3.org/2000/svg">
<path fill-rule="evenodd" clip-rule="evenodd" d="M287.647 24.5902C292.87 31.0072 302.307 31.9744 308.725 26.7506C315.142 21.5267 316.108 12.0901 310.885 5.6731C305.661 -0.743879 296.225 -1.71113 289.807 3.51268C283.39 8.73649 282.423 18.1732 287.647 24.5902ZM358.807 39.5241C351.444 43.2997 342.415 40.3916 338.639 33.0287C334.863 25.6659 337.772 16.6364 345.135 12.8609C352.497 9.08549 361.527 11.9936 365.302 19.3565C369.078 26.7193 366.169 35.7486 358.807 39.5241ZM386.763 51.8846C388.925 59.8715 397.152 64.5934 405.139 62.4312C413.127 60.269 417.848 52.0416 415.686 44.0547C413.524 36.0677 405.297 31.3459 397.31 33.5081C389.323 35.6703 384.6 43.8977 386.763 51.8846ZM445.697 94.4704C437.435 94.9253 430.369 88.5958 429.915 80.3339C429.46 72.072 435.789 65.0061 444.051 64.5517C452.313 64.0973 459.379 70.4266 459.834 78.6885C460.288 86.9504 453.959 94.0164 445.697 94.4704ZM466.209 117.134C464.936 125.31 470.531 132.969 478.707 134.242C486.883 135.516 494.542 129.92 495.815 121.744C497.089 113.568 491.493 105.909 483.317 104.636C475.141 103.362 467.482 108.958 466.209 117.134ZM502.726 180.008C494.994 177.063 491.113 168.407 494.058 160.675C497.003 152.942 505.66 149.062 513.392 152.007C521.124 154.952 525.005 163.608 522.06 171.34C519.114 179.073 510.459 182.954 502.726 180.008ZM512.247 209.054C507.758 216.005 509.754 225.279 516.705 229.768C523.656 234.256 532.93 232.261 537.418 225.31C541.907 218.359 539.911 209.085 532.96 204.596C526.009 200.108 516.735 202.103 512.247 209.054ZM519.657 259.817C513.967 265.537 514.264 275.057 520.32 281.081C526.376 287.106 535.898 287.354 541.588 281.634C547.278 275.915 546.981 266.395 540.925 260.369C534.869 254.345 525.347 254.097 519.657 259.817ZM257.08 24.669C251.889 31.1129 242.458 32.1287 236.014 26.9381C229.57 21.7474 228.554 12.3159 233.745 5.87201C238.935 -0.57181 248.368 -1.5877 254.811 3.60295C261.255 8.79362 262.27 18.2252 257.08 24.669ZM185.998 39.9696C193.381 43.7071 202.395 40.7525 206.133 33.3702C209.87 25.9881 206.915 16.9738 199.533 13.2363C192.151 9.4988 183.137 12.4535 179.399 19.8356C175.662 27.2179 178.616 36.2321 185.998 39.9696ZM158.106 52.474C155.986 60.472 147.783 65.2362 139.785 63.1153C131.787 60.9943 127.023 52.7913 129.144 44.7933C131.264 36.7954 139.467 32.0312 147.465 34.1521C155.463 36.2731 160.227 44.4761 158.106 52.474ZM99.3931 95.3636C107.657 95.775 114.69 89.4096 115.102 81.1455C115.514 72.8813 109.148 65.8481 100.884 65.4364C92.62 65.0246 85.5868 71.3903 85.175 79.6544C84.7632 87.9185 91.1289 94.9522 99.3931 95.3636ZM78.9985 118.132C80.314 126.301 74.7579 133.989 66.5888 135.305C58.4196 136.621 50.7308 131.064 49.4153 122.895C48.0998 114.727 53.6559 107.037 61.825 105.721C69.9942 104.407 77.683 109.962 78.9985 118.132ZM42.8057 181.194C50.5229 178.209 54.3589 169.533 51.3738 161.815C48.3885 154.098 39.7126 150.262 31.9954 153.248C24.2783 156.233 20.4423 164.909 23.4275 172.626C26.4126 180.344 35.0886 184.179 42.8057 181.194ZM33.4349 210.289C37.9594 217.217 36.011 226.5 29.0832 231.026C22.1553 235.55 12.8713 233.601 8.34694 226.674C3.82249 219.746 5.77085 210.462 12.6987 205.937C19.6266 201.413 28.9105 203.361 33.4349 210.289ZM26.3423 282.962C32.0322 277.243 31.7356 267.722 25.6798 261.698C19.624 255.673 10.1023 255.426 4.4123 261.145C-1.27766 266.864 -0.98108 276.385 5.07472 282.41C11.1305 288.434 20.6523 288.682 26.3423 282.962ZM29.2944 313.011C36.2455 317.5 38.2417 326.774 33.753 333.725C29.2644 340.676 19.9907 342.671 13.0395 338.183C6.08844 333.694 4.09225 324.42 8.58091 317.469C13.0696 310.518 22.3433 308.523 29.2944 313.011ZM51.9419 382.104C54.8873 374.372 51.0067 365.716 43.2742 362.771C35.5418 359.825 26.8857 363.706 23.9403 371.438C20.995 379.171 24.8757 387.827 32.6081 390.772C40.3406 393.718 48.9966 389.837 51.9419 382.104ZM67.2928 408.537C75.4687 409.81 81.0643 417.47 79.791 425.645C78.5177 433.821 70.8575 439.418 62.6817 438.144C54.5059 436.87 48.9103 429.211 50.1836 421.035C51.457 412.859 59.117 407.264 67.2928 408.537ZM116.085 462.445C115.631 454.183 108.565 447.854 100.303 448.309C92.0407 448.763 85.7114 455.829 86.1657 464.091C86.6201 472.353 93.6856 478.682 101.948 478.228C110.21 477.773 116.539 470.707 116.085 462.445ZM140.86 480.348C148.847 478.186 157.074 482.908 159.237 490.895C161.398 498.881 156.677 507.109 148.69 509.272C140.703 511.433 132.475 506.712 130.314 498.725C128.151 490.738 132.873 482.51 140.86 480.348ZM207.361 509.751C203.585 502.387 194.556 499.479 187.193 503.255C179.83 507.03 176.922 516.06 180.697 523.423C184.473 530.785 193.502 533.694 200.866 529.918C208.228 526.142 211.136 517.113 207.361 509.751ZM237.275 516.029C243.692 510.805 253.129 511.772 258.353 518.19C263.577 524.606 262.609 534.043 256.192 539.267C249.775 544.491 240.338 543.523 235.114 537.106C229.89 530.69 230.858 521.253 237.275 516.029ZM309.986 515.841C303.542 510.65 294.11 511.667 288.919 518.11C283.728 524.554 284.745 533.985 291.188 539.177C297.632 544.367 307.063 543.351 312.254 536.908C317.445 530.464 316.429 521.032 309.986 515.841ZM339.868 509.409C343.604 502.027 352.619 499.072 360.002 502.81C367.383 506.547 370.338 515.561 366.6 522.944C362.864 530.326 353.849 533.28 346.467 529.543C339.085 525.806 336.13 516.792 339.868 509.409ZM406.215 479.664C398.217 477.543 390.014 482.307 387.893 490.305C385.772 498.303 390.537 506.506 398.535 508.627C406.533 510.748 414.735 505.983 416.856 497.985C418.977 489.987 414.213 481.785 406.215 479.664ZM430.898 461.633C431.309 453.369 438.343 447.004 446.607 447.415C454.871 447.827 461.237 454.86 460.824 463.124C460.413 471.389 453.38 477.754 445.116 477.343C436.851 476.931 430.486 469.898 430.898 461.633ZM479.411 407.474C471.242 408.79 465.686 416.478 467.001 424.647C468.317 432.817 476.006 438.372 484.174 437.058C492.344 435.742 497.9 428.053 496.585 419.884C495.269 411.715 487.58 406.159 479.411 407.474ZM494.626 380.964C491.641 373.247 495.477 364.57 503.194 361.585C510.911 358.6 519.587 362.436 522.572 370.153C525.558 377.87 521.722 386.546 514.005 389.531C506.287 392.517 497.611 388.681 494.626 380.964ZM516.916 311.754C509.988 316.279 508.04 325.563 512.565 332.491C517.089 339.418 526.373 341.367 533.301 336.842C540.228 332.317 542.177 323.033 537.653 316.106C533.128 309.178 523.844 307.229 516.916 311.754Z" fill="url(#paint0_linear_11_489)"/>
<path fill-rule="evenodd" clip-rule="evenodd" d="M280.926 68.7662C276.14 73.5891 268.349 73.6185 263.527 68.8318C258.704 64.0452 258.674 56.255 263.461 51.4321C268.248 46.6092 276.038 46.5798 280.861 51.3665C285.684 56.1531 285.713 63.9432 280.926 68.7662ZM305.901 71.2962C309.623 76.981 317.249 78.572 322.934 74.8497C328.619 71.1273 330.209 63.5013 326.487 57.8165C322.765 52.1317 315.139 50.5407 309.454 54.2631C303.77 57.9853 302.179 65.6114 305.901 71.2962ZM362.758 89.5336C356.424 91.9926 349.295 88.8509 346.836 82.5164C344.377 76.1819 347.519 69.0533 353.853 66.5943C360.188 64.1352 367.317 67.277 369.776 73.6115C372.235 79.946 369.093 87.0745 362.758 89.5336ZM384.544 102.002C385.633 108.71 391.952 113.265 398.66 112.176C405.367 111.088 409.922 104.769 408.833 98.0612C407.745 91.3539 401.426 86.7987 394.718 87.8869C388.011 88.9752 383.456 95.2948 384.544 102.002ZM429.068 141.789C422.281 141.459 417.047 135.689 417.377 128.902C417.707 122.115 423.476 116.881 430.263 117.211C437.05 117.541 442.285 123.31 441.955 130.097C441.625 136.884 435.855 142.119 429.068 141.789ZM443.899 162.041C442.166 168.611 446.086 175.343 452.656 177.077C459.226 178.811 465.957 174.89 467.692 168.32C469.426 161.75 465.505 155.018 458.935 153.284C452.365 151.55 445.633 155.47 443.899 162.041ZM468.392 216.497C462.325 213.435 459.891 206.036 462.953 199.97C466.014 193.903 473.414 191.469 479.48 194.531C485.547 197.592 487.982 204.992 484.919 211.058C481.857 217.125 474.458 219.56 468.392 216.497ZM473.703 241.031C469.447 246.327 470.29 254.072 475.587 258.328C480.884 262.585 488.628 261.741 492.885 256.444C497.141 251.147 496.297 243.403 491.001 239.147C485.704 234.89 477.959 235.734 473.703 241.031ZM475.587 283.203C470.475 287.374 469.902 295.129 474.305 300.526C478.708 305.921 486.42 306.913 491.532 302.742C496.644 298.571 497.218 290.815 492.815 285.419C488.412 280.024 480.699 279.032 475.587 283.203ZM219.156 75.0306C223.978 79.8174 231.769 79.788 236.555 74.965C241.342 70.1421 241.313 62.352 236.489 57.5654C231.667 52.7786 223.876 52.808 219.09 57.631C214.303 62.4538 214.333 70.244 219.156 75.0306ZM197.724 83.0787C195.312 89.4315 188.207 92.6269 181.855 90.2157C175.501 87.8045 172.307 80.6998 174.717 74.3469C177.128 67.9941 184.233 64.7987 190.586 67.2099C196.939 69.6211 200.134 76.7257 197.724 83.0787ZM146.125 113.129C152.841 114.167 159.126 109.564 160.163 102.848C161.201 96.1331 156.598 89.8479 149.882 88.8103C143.168 87.7727 136.882 92.3754 135.845 99.0907C134.807 105.806 139.41 112.091 146.125 113.129ZM127.534 129.995C127.915 136.78 122.725 142.589 115.94 142.969C109.156 143.351 103.347 138.16 102.966 131.376C102.585 124.591 107.775 118.783 114.56 118.401C121.344 118.02 127.153 123.211 127.534 129.995ZM92.6193 178.435C99.1761 176.651 103.046 169.89 101.262 163.333C99.4789 156.776 92.7178 152.907 86.1609 154.69C79.604 156.474 75.7344 163.235 77.5178 169.791C79.3013 176.348 86.0624 180.217 92.6193 178.435ZM82.4961 201.404C85.6038 207.447 83.2244 214.865 77.1817 217.972C71.1389 221.08 63.7209 218.701 60.6133 212.659C57.5056 206.616 59.8849 199.198 65.9277 196.09C71.9704 192.983 79.3883 195.362 82.4961 201.404ZM70.653 259.874C75.9066 255.587 76.5962 247.738 72.1931 242.342C67.7901 236.946 59.9619 236.048 54.7083 240.335C49.4548 244.623 48.7653 252.471 53.1683 257.868C57.5713 263.263 65.3995 264.162 70.653 259.874ZM70.3966 284.959C75.6935 289.215 76.537 296.959 72.2807 302.257C68.0243 307.553 60.2799 308.397 54.9831 304.14C49.6862 299.884 48.8427 292.14 53.0991 286.842C57.3554 281.545 65.0997 280.702 70.3966 284.959ZM83.0313 343.317C86.0934 337.251 83.6581 329.852 77.5922 326.79C71.5261 323.727 64.1263 326.162 61.0643 332.228C58.0022 338.294 60.4374 345.695 66.5034 348.756C72.5695 351.818 79.9693 349.383 83.0313 343.317ZM93.3274 366.21C99.8975 367.944 103.818 374.676 102.084 381.246C100.35 387.816 93.6184 391.737 87.0483 390.002C80.4781 388.269 76.5577 381.537 78.2916 374.967C80.0255 368.397 86.7573 364.476 93.3274 366.21ZM128.607 414.384C128.937 407.597 123.702 401.828 116.915 401.498C110.128 401.168 104.359 406.402 104.029 413.189C103.699 419.977 108.933 425.745 115.72 426.076C122.507 426.406 128.277 421.171 128.607 414.384ZM147.324 431.111C154.031 430.022 160.351 434.577 161.439 441.286C162.528 447.993 157.972 454.312 151.265 455.4C144.558 456.488 138.238 451.933 137.15 445.226C136.061 438.519 140.617 432.199 147.324 431.111ZM199.147 460.771C196.688 454.436 189.56 451.295 183.225 453.754C176.89 456.213 173.749 463.341 176.208 469.676C178.667 476.011 185.795 479.152 192.13 476.693C198.465 474.234 201.606 467.105 199.147 460.771ZM265.057 474.521C269.843 469.698 277.633 469.668 282.456 474.455C287.279 479.241 287.308 487.032 282.522 491.855C277.735 496.678 269.945 496.707 265.122 491.92C260.3 487.134 260.27 479.343 265.057 474.521ZM238.092 472.682C233.269 467.896 225.479 467.926 220.693 472.748C215.905 477.571 215.935 485.361 220.758 490.148C225.581 494.934 233.371 494.905 238.158 490.082C242.945 485.259 242.915 477.469 238.092 472.682ZM307.411 471.737C311.09 466.024 318.704 464.376 324.417 468.055C330.13 471.734 331.778 479.349 328.099 485.061C324.419 490.774 316.805 492.422 311.093 488.743C305.38 485.064 303.732 477.45 307.411 471.737ZM364.129 453.071C357.777 450.66 350.672 453.856 348.26 460.208C345.849 466.562 349.045 473.666 355.397 476.077C361.751 478.488 368.856 475.293 371.266 468.94C373.677 462.588 370.483 455.483 364.129 453.071ZM385.821 440.439C386.857 433.723 393.143 429.121 399.859 430.159C406.573 431.196 411.176 437.481 410.139 444.197C409.101 450.912 402.816 455.514 396.101 454.477C389.385 453.439 384.783 447.154 385.821 440.439ZM430.043 400.317C423.259 400.698 418.068 406.508 418.449 413.292C418.831 420.076 424.639 425.266 431.423 424.886C438.207 424.504 443.399 418.695 443.017 411.911C442.636 405.127 436.828 399.936 430.043 400.317ZM444.721 379.954C442.938 373.397 446.807 366.636 453.364 364.853C459.921 363.069 466.682 366.939 468.466 373.496C470.249 380.053 466.379 386.814 459.823 388.597C453.266 390.38 446.505 386.511 444.721 379.954ZM468.802 325.314C462.759 328.422 460.38 335.84 463.487 341.883C466.595 347.926 474.013 350.305 480.056 347.197C486.099 344.089 488.478 336.671 485.371 330.629C482.263 324.586 474.844 322.207 468.802 325.314Z" fill="url(#paint1_linear_11_489)"/>
<defs>
<linearGradient id="paint0_linear_11_489" x1="11.8265" y1="202.321" x2="536.926" y2="202.321" gradientUnits="userSpaceOnUse">
<stop stop-color="#6942E2"/>
<stop offset="1" stop-color="#6942E2" stop-opacity="0"/>
</linearGradient>
<linearGradient id="paint1_linear_11_489" x1="476.596" y1="211.259" x2="31.9367" y2="215.728" gradientUnits="userSpaceOnUse">
<stop stop-color="#28E7C5"/>
<stop offset="1" stop-color="#28E7C5" stop-opacity="0"/>
</linearGradient>
</defs>
</svg>
