<svg width="501" height="500" viewBox="0 0 501 500" fill="none" xmlns="http://www.w3.org/2000/svg">
<g clip-path="url(#clip0_29_10400)">
<g filter="url(#filter0_f_29_10400)">
<circle cx="481.612" cy="490" r="54.6486" fill="white" fill-opacity="0.16"/>
</g>
<g filter="url(#filter1_f_29_10400)">
<circle cx="0.920593" cy="453.368" r="44.4781" fill="white" fill-opacity="0.04"/>
</g>
<g filter="url(#filter2_f_29_10400)">
<circle cx="250.921" cy="-7.69885" r="44.4781" fill="white" fill-opacity="0.08"/>
</g>
<g clip-path="url(#clip1_29_10400)">
<mask id="mask0_29_10400" style="mask-type:alpha" maskUnits="userSpaceOnUse" x="40" y="145" width="422" height="309">
<rect x="40.283" y="145.538" width="421.434" height="307.83" fill="url(#paint0_linear_29_10400)"/>
</mask>
<g mask="url(#mask0_29_10400)">
<g clip-path="url(#clip2_29_10400)">
<rect x="54.9415" y="160.196" width="392.117" height="53.1373" rx="10.9939" fill="white" fill-opacity="0.01"/>
<circle cx="81.5102" cy="186.765" r="8.24545" fill="white" fill-opacity="0.01"/>
<circle cx="81.5102" cy="186.765" r="8.24545" fill="#071121" fill-opacity="0.3"/>
<circle cx="81.5102" cy="186.765" r="7.78737" stroke="white" stroke-opacity="0.1" stroke-width="0.916161"/>
<rect opacity="0.1" x="104.414" y="184.933" width="108.107" height="3.66464" rx="0.916161" fill="white"/>
<path d="M377.454 190.166H376.409V188.946C375.277 188.649 374.661 187.913 374.584 186.736H375.728C375.816 187.528 376.256 187.968 376.948 187.968C377.641 187.968 378.048 187.462 378.048 186.725C378.048 186.121 377.718 185.736 376.783 185.494C375.277 185.109 374.903 184.395 374.903 183.471C374.903 182.493 375.464 181.701 376.409 181.448V180.217H377.454V181.448C378.41 181.547 379.037 182.262 379.081 183.35H377.938C377.894 182.767 377.575 182.427 376.97 182.427C376.431 182.427 376.047 182.877 376.047 183.46C376.047 184.021 376.387 184.307 377.091 184.472C378.619 184.823 379.191 185.571 379.191 186.714C379.191 187.913 378.542 188.77 377.454 188.946V190.166ZM387.707 181.129L385.981 183.801C386.168 183.757 386.3 183.746 386.465 183.746C387.949 183.746 389.081 184.966 389.081 186.494C389.081 188.089 387.905 189.419 386.278 189.419C384.453 189.419 383.452 187.869 383.452 186.604C383.452 185.978 383.65 185.351 384.09 184.669L386.355 181.129H387.707ZM386.278 188.374C387.223 188.374 387.938 187.539 387.938 186.615C387.938 185.681 387.3 184.79 386.3 184.79C385.354 184.79 384.596 185.593 384.596 186.538C384.596 187.517 385.277 188.374 386.278 188.374ZM390.232 190.661V189.979C390.529 189.87 390.639 189.738 390.639 189.265H390.232V187.924H391.375V189.188C391.375 190.001 391.013 190.507 390.232 190.661ZM398.009 183.603V186.813C398.009 188.594 396.524 189.419 395.359 189.419C394.139 189.419 392.742 188.528 392.742 186.703V183.68C392.742 181.954 394.051 180.964 395.403 180.964C396.887 180.964 398.009 182.163 398.009 183.603ZM396.865 186.868V183.603C396.865 182.789 396.403 182.009 395.381 182.009C394.425 182.009 393.886 182.734 393.886 183.603V186.648C393.886 187.583 394.381 188.374 395.381 188.374C396.107 188.374 396.865 187.803 396.865 186.868ZM404.107 183.603V186.813C404.107 188.594 402.623 189.419 401.457 189.419C400.237 189.419 398.841 188.528 398.841 186.703V183.68C398.841 181.954 400.149 180.964 401.501 180.964C402.985 180.964 404.107 182.163 404.107 183.603ZM402.963 186.868V183.603C402.963 182.789 402.502 182.009 401.479 182.009C400.523 182.009 399.984 182.734 399.984 183.603V186.648C399.984 187.583 400.479 188.374 401.479 188.374C402.205 188.374 402.963 187.803 402.963 186.868ZM410.205 183.603V186.813C410.205 188.594 408.721 189.419 407.555 189.419C406.335 189.419 404.939 188.528 404.939 186.703V183.68C404.939 181.954 406.247 180.964 407.599 180.964C409.084 180.964 410.205 182.163 410.205 183.603ZM409.062 186.868V183.603C409.062 182.789 408.6 182.009 407.577 182.009C406.621 182.009 406.082 182.734 406.082 183.603V186.648C406.082 187.583 406.577 188.374 407.577 188.374C408.303 188.374 409.062 187.803 409.062 186.868ZM411.576 190.661V189.979C411.873 189.87 411.983 189.738 411.983 189.265H411.576V187.924H412.719V189.188C412.719 190.001 412.356 190.507 411.576 190.661ZM419.352 183.603V186.813C419.352 188.594 417.868 189.419 416.703 189.419C415.482 189.419 414.086 188.528 414.086 186.703V183.68C414.086 181.954 415.394 180.964 416.747 180.964C418.231 180.964 419.352 182.163 419.352 183.603ZM418.209 186.868V183.603C418.209 182.789 417.747 182.009 416.725 182.009C415.768 182.009 415.23 182.734 415.23 183.603V186.648C415.23 187.583 415.724 188.374 416.725 188.374C417.45 188.374 418.209 187.803 418.209 186.868ZM425.45 183.603V186.813C425.45 188.594 423.966 189.419 422.801 189.419C421.581 189.419 420.184 188.528 420.184 186.703V183.68C420.184 181.954 421.493 180.964 422.845 180.964C424.329 180.964 425.45 182.163 425.45 183.603ZM424.307 186.868V183.603C424.307 182.789 423.845 182.009 422.823 182.009C421.866 182.009 421.328 182.734 421.328 183.603V186.648C421.328 187.583 421.822 188.374 422.823 188.374C423.548 188.374 424.307 187.803 424.307 186.868ZM431.549 183.603V186.813C431.549 188.594 430.064 189.419 428.899 189.419C427.679 189.419 426.283 188.528 426.283 186.703V183.68C426.283 181.954 427.591 180.964 428.943 180.964C430.427 180.964 431.549 182.163 431.549 183.603ZM430.405 186.868V183.603C430.405 182.789 429.944 182.009 428.921 182.009C427.965 182.009 427.426 182.734 427.426 183.603V186.648C427.426 187.583 427.921 188.374 428.921 188.374C429.647 188.374 430.405 187.803 430.405 186.868Z" fill="white" fill-opacity="0.7"/>
<g filter="url(#filter3_bi_29_10400)">
<g clip-path="url(#clip3_29_10400)">
<rect x="54.9415" y="220.663" width="392.117" height="53.1373" rx="10.9939" fill="#071121" fill-opacity="0.1"/>
<rect x="54.9415" y="220.663" width="392.117" height="53.1373" rx="10.9939" fill="#071121" fill-opacity="0.2"/>
<g filter="url(#filter4_bdi_29_10400)">
<circle cx="81.5102" cy="247.232" r="8.24545" fill="white" fill-opacity="0.01" shape-rendering="crispEdges"/>
<circle cx="81.5102" cy="247.232" r="8.24545" fill="#071121" fill-opacity="0.3" shape-rendering="crispEdges"/>
<circle cx="81.5102" cy="247.232" r="7.78737" stroke="url(#paint1_linear_29_10400)" stroke-opacity="0.25" stroke-width="0.916161" shape-rendering="crispEdges"/>
</g>
<circle cx="81.5102" cy="247.231" r="4.12272" fill="#28E7C5"/>
<rect x="104.414" y="245.399" width="62.299" height="3.66464" rx="0.916161" fill="#28E7C5"/>
<path d="M267.471 250.633H266.427V249.413C265.294 249.116 264.679 248.379 264.602 247.203H265.745C265.833 247.994 266.273 248.434 266.965 248.434C267.658 248.434 268.065 247.928 268.065 247.192C268.065 246.587 267.735 246.202 266.8 245.961C265.294 245.576 264.92 244.861 264.92 243.938C264.92 242.959 265.481 242.168 266.427 241.915V240.683H267.471V241.915C268.427 242.014 269.054 242.728 269.098 243.817H267.955C267.911 243.234 267.592 242.893 266.987 242.893C266.449 242.893 266.064 243.344 266.064 243.927C266.064 244.487 266.405 244.773 267.108 244.938C268.636 245.29 269.208 246.037 269.208 247.181C269.208 248.379 268.559 249.237 267.471 249.413V250.633ZM274.943 249.731H273.8V248.456H270.084V247.346L273.8 241.596H274.943V247.412H275.801V248.456H274.943V249.731ZM273.8 247.412V243.498H273.778L271.403 247.412H273.8ZM277.007 251.128V250.446C277.304 250.336 277.414 250.204 277.414 249.731H277.007V248.39H278.15V249.654C278.15 250.468 277.787 250.974 277.007 251.128ZM284.783 244.07V247.28C284.783 249.061 283.299 249.885 282.134 249.885C280.914 249.885 279.517 248.995 279.517 247.17V244.147C279.517 242.42 280.826 241.431 282.178 241.431C283.662 241.431 284.783 242.629 284.783 244.07ZM283.64 247.335V244.07C283.64 243.256 283.178 242.475 282.156 242.475C281.199 242.475 280.661 243.201 280.661 244.07V247.115C280.661 248.049 281.155 248.841 282.156 248.841C282.881 248.841 283.64 248.269 283.64 247.335ZM290.882 244.07V247.28C290.882 249.061 289.397 249.885 288.232 249.885C287.012 249.885 285.615 248.995 285.615 247.17V244.147C285.615 242.42 286.924 241.431 288.276 241.431C289.76 241.431 290.882 242.629 290.882 244.07ZM289.738 247.335V244.07C289.738 243.256 289.276 242.475 288.254 242.475C287.298 242.475 286.759 243.201 286.759 244.07V247.115C286.759 248.049 287.254 248.841 288.254 248.841C288.98 248.841 289.738 248.269 289.738 247.335ZM296.98 244.07V247.28C296.98 249.061 295.496 249.885 294.33 249.885C293.11 249.885 291.714 248.995 291.714 247.17V244.147C291.714 242.42 293.022 241.431 294.374 241.431C295.858 241.431 296.98 242.629 296.98 244.07ZM295.836 247.335V244.07C295.836 243.256 295.375 242.475 294.352 242.475C293.396 242.475 292.857 243.201 292.857 244.07V247.115C292.857 248.049 293.352 248.841 294.352 248.841C295.078 248.841 295.836 248.269 295.836 247.335ZM298.351 251.128V250.446C298.647 250.336 298.757 250.204 298.757 249.731H298.351V248.39H299.494V249.654C299.494 250.468 299.131 250.974 298.351 251.128ZM306.127 244.07V247.28C306.127 249.061 304.643 249.885 303.478 249.885C302.257 249.885 300.861 248.995 300.861 247.17V244.147C300.861 242.42 302.169 241.431 303.521 241.431C305.006 241.431 306.127 242.629 306.127 244.07ZM304.984 247.335V244.07C304.984 243.256 304.522 242.475 303.5 242.475C302.543 242.475 302.004 243.201 302.004 244.07V247.115C302.004 248.049 302.499 248.841 303.5 248.841C304.225 248.841 304.984 248.269 304.984 247.335ZM312.225 244.07V247.28C312.225 249.061 310.741 249.885 309.576 249.885C308.355 249.885 306.959 248.995 306.959 247.17V244.147C306.959 242.42 308.267 241.431 309.62 241.431C311.104 241.431 312.225 242.629 312.225 244.07ZM311.082 247.335V244.07C311.082 243.256 310.62 242.475 309.598 242.475C308.641 242.475 308.103 243.201 308.103 244.07V247.115C308.103 248.049 308.597 248.841 309.598 248.841C310.323 248.841 311.082 248.269 311.082 247.335ZM318.323 244.07V247.28C318.323 249.061 316.839 249.885 315.674 249.885C314.454 249.885 313.057 248.995 313.057 247.17V244.147C313.057 242.42 314.366 241.431 315.718 241.431C317.202 241.431 318.323 242.629 318.323 244.07ZM317.18 247.335V244.07C317.18 243.256 316.718 242.475 315.696 242.475C314.739 242.475 314.201 243.201 314.201 244.07V247.115C314.201 248.049 314.695 248.841 315.696 248.841C316.422 248.841 317.18 248.269 317.18 247.335Z" fill="white" fill-opacity="0.7"/>
</g>
<rect x="55.6286" y="221.35" width="390.743" height="51.7631" rx="10.3068" stroke="#6942E2" stroke-width="1.37424"/>
</g>
<g opacity="0.5">
<path d="M82.8844 304.873L79.4488 309.072L77.9219 307.545M87.4653 306.782C87.4653 310.577 84.3889 313.653 80.594 313.653C76.7992 313.653 73.7228 310.577 73.7228 306.782C73.7228 302.987 76.7992 299.911 80.594 299.911C84.3889 299.911 87.4653 302.987 87.4653 306.782Z" stroke="white" stroke-width="1.83232" stroke-linecap="round" stroke-linejoin="round"/>
</g>
<rect opacity="0.5" x="102.582" y="300.369" width="40.3111" height="3.66464" rx="0.916161" fill="white"/>
<rect opacity="0.1" x="102.582" y="309.531" width="137.424" height="3.66464" rx="0.916161" fill="white"/>
<g opacity="0.5">
<path d="M275.278 304.873L271.843 309.072L270.316 307.545M279.859 306.782C279.859 310.577 276.783 313.653 272.988 313.653C269.193 313.653 266.117 310.577 266.117 306.782C266.117 302.987 269.193 299.911 272.988 299.911C276.783 299.911 279.859 302.987 279.859 306.782Z" stroke="white" stroke-width="1.83232" stroke-linecap="round" stroke-linejoin="round"/>
</g>
<rect opacity="0.5" x="294.976" y="300.369" width="40.3111" height="3.66464" rx="0.916161" fill="white"/>
<rect opacity="0.1" x="294.976" y="309.531" width="137.424" height="3.66464" rx="0.916161" fill="white"/>
<g opacity="0.5">
<path d="M82.8844 341.52L79.4488 345.719L77.9219 344.192M87.4653 343.428C87.4653 347.223 84.3889 350.3 80.594 350.3C76.7992 350.3 73.7228 347.223 73.7228 343.428C73.7228 339.633 76.7992 336.557 80.594 336.557C84.3889 336.557 87.4653 339.633 87.4653 343.428Z" stroke="white" stroke-width="1.83232" stroke-linecap="round" stroke-linejoin="round"/>
</g>
<rect opacity="0.5" x="102.582" y="337.015" width="40.3111" height="3.66464" rx="0.916161" fill="white"/>
<rect opacity="0.1" x="102.582" y="346.177" width="137.424" height="3.66464" rx="0.916161" fill="white"/>
<g opacity="0.5">
<path d="M275.278 341.52L271.843 345.719L270.316 344.192M279.859 343.428C279.859 347.223 276.783 350.3 272.988 350.3C269.193 350.3 266.117 347.223 266.117 343.428C266.117 339.633 269.193 336.557 272.988 336.557C276.783 336.557 279.859 339.633 279.859 343.428Z" stroke="white" stroke-width="1.83232" stroke-linecap="round" stroke-linejoin="round"/>
</g>
<rect opacity="0.5" x="294.976" y="337.015" width="40.3111" height="3.66464" rx="0.916161" fill="white"/>
<rect opacity="0.1" x="294.976" y="346.177" width="137.424" height="3.66464" rx="0.916161" fill="white"/>
<g filter="url(#filter5_d_29_10400)">
<rect x="174.042" y="380.075" width="153.915" height="43.9757" rx="7.32929" fill="white" fill-opacity="0.05" style="mix-blend-mode:luminosity" shape-rendering="crispEdges"/>
<rect x="174.501" y="380.533" width="152.999" height="43.0596" rx="6.87121" stroke="url(#paint2_linear_29_10400)" stroke-opacity="0.25" stroke-width="0.916161" shape-rendering="crispEdges"/>
<rect x="230.844" y="400.23" width="40.3111" height="3.66464" rx="0.916161" fill="white" fill-opacity="0.95"/>
</g>
</g>
<rect x="40.9701" y="146.225" width="420.06" height="306.456" rx="13.9715" stroke="white" stroke-opacity="0.1" stroke-width="1.37424"/>
</g>
</g>
<g filter="url(#filter6_i_29_10400)">
<path d="M213.708 96.0023C213.35 96.3933 213.164 96.5789 212.773 96.9368C206.988 101.742 187.046 101.45 181.201 96.9368C180.81 96.5789 180.624 96.3933 180.266 96.0023C175.753 90.157 175.461 70.2153 180.266 64.4296C180.624 64.0386 180.81 63.853 181.201 63.4951C187.046 58.9819 206.988 58.6903 212.773 63.4951C213.164 63.853 213.35 64.0386 213.708 64.4296C218.513 70.2153 218.221 90.157 213.708 96.0023Z" fill="#081428"/>
</g>
<path d="M206.862 70.149V72.2962C206.862 73.3566 206 74.2182 204.94 74.2182H196.914C196.404 74.2182 195.913 74.4236 195.556 74.7815C195.198 75.1394 194.992 75.6298 194.992 76.1401V78.2807C194.992 79.3411 194.131 80.2027 193.07 80.2027H190.93C189.869 80.2027 189.008 79.3411 189.008 78.2807V76.1401C189.008 75.0797 189.869 74.2182 190.93 74.2182H193.07C193.581 74.2182 194.071 74.0127 194.429 73.6549L194.436 73.6482C194.793 73.2903 194.999 72.7999 194.999 72.2896V70.149C194.999 69.0886 195.86 68.2271 196.921 68.2271H204.947C206 68.2271 206.862 69.0886 206.862 70.149Z" fill="#6942E2"/>
<path d="M200.983 82.1378V84.285C200.983 85.3454 200.122 86.2069 199.061 86.2069H197.285C196.775 86.2069 196.285 86.4124 195.92 86.7703L195.549 87.148C195.191 87.5059 194.986 87.9963 194.986 88.5066V90.2761C194.986 91.3365 194.124 92.1981 193.064 92.1981H190.923C189.863 92.1981 189.001 91.3365 189.001 90.2761V88.1355C189.001 87.0751 189.863 86.2136 190.923 86.2136H192.693C193.203 86.2136 193.693 86.0148 194.051 85.6503L194.429 85.2791C194.793 84.9212 194.992 84.4308 194.992 83.9139V82.1378C194.992 81.0774 195.854 80.2158 196.914 80.2158H199.061C200.122 80.2158 200.983 81.0774 200.983 82.1378Z" fill="#6942E2"/>
<g filter="url(#filter7_i_29_10400)">
<path d="M206.862 70.149V72.2962C206.862 73.3566 206 74.2182 204.94 74.2182H196.914C196.404 74.2182 195.913 74.4236 195.556 74.7815C195.198 75.1394 194.992 75.6298 194.992 76.1401V78.2807C194.992 79.3411 194.131 80.2027 193.07 80.2027H190.93C189.869 80.2027 189.008 79.3411 189.008 78.2807V76.1401C189.008 75.0797 189.869 74.2182 190.93 74.2182H193.07C193.581 74.2182 194.071 74.0127 194.429 73.6549L194.436 73.6482C194.793 73.2903 194.999 72.7999 194.999 72.2896V70.149C194.999 69.0886 195.86 68.2271 196.921 68.2271H204.947C206 68.2271 206.862 69.0886 206.862 70.149Z" fill="#6942E2"/>
</g>
<g filter="url(#filter8_i_29_10400)">
<path d="M200.983 82.1378V84.285C200.983 85.3454 200.122 86.2069 199.061 86.2069H197.285C196.775 86.2069 196.285 86.4124 195.92 86.7703L195.549 87.148C195.191 87.5059 194.986 87.9963 194.986 88.5066V90.2761C194.986 91.3365 194.124 92.1981 193.064 92.1981H190.923C189.863 92.1981 189.001 91.3365 189.001 90.2761V88.1355C189.001 87.0751 189.863 86.2136 190.923 86.2136H192.693C193.203 86.2136 193.693 86.0148 194.051 85.6503L194.429 85.2791C194.793 84.9212 194.992 84.4308 194.992 83.9139V82.1378C194.992 81.0774 195.854 80.2158 196.914 80.2158H199.061C200.122 80.2158 200.983 81.0774 200.983 82.1378Z" fill="#6942E2"/>
</g>
<path d="M227.219 89.8355V71.6301H238.93V74.6787H230.666V79.0859H237.863V82.1345H230.666V89.8288H227.219V89.8355Z" fill="#28E7C5"/>
<path d="M242.423 74.2348C241.727 74.2348 241.23 74.0758 240.925 73.7643C240.62 73.4528 240.467 73.0485 240.467 72.5647V72.0412C240.467 71.5574 240.62 71.1531 240.925 70.8416C241.23 70.5301 241.727 70.3711 242.423 70.3711C243.099 70.3711 243.596 70.5301 243.907 70.8416C244.219 71.1531 244.378 71.5574 244.378 72.0412V72.5647C244.378 73.0485 244.219 73.4528 243.907 73.7643C243.596 74.0824 243.099 74.2348 242.423 74.2348ZM240.752 76.223H244.093V89.8356H240.752V76.223Z" fill="#28E7C5"/>
<path d="M246.651 89.8354V76.2229H249.991V78.4894H250.124C250.402 77.7604 250.839 77.1441 251.442 76.6536C252.046 76.1566 252.874 75.9114 253.934 75.9114C255.346 75.9114 256.42 76.3753 257.168 77.2965C257.917 78.2177 258.289 79.5299 258.289 81.2331V89.8421H254.948V81.5645C254.948 80.5903 254.776 79.8613 254.425 79.3709C254.074 78.8871 253.504 78.6418 252.702 78.6418C252.35 78.6418 252.019 78.6882 251.694 78.7876C251.37 78.8804 251.085 79.0196 250.833 79.2052C250.581 79.3907 250.375 79.6161 250.216 79.8812C250.057 80.1529 249.984 80.471 249.984 80.8355V89.8354H246.651Z" fill="#28E7C5"/>
<path d="M261.178 71.6301H268.66C270.171 71.6301 271.358 72.0543 272.219 72.9092C273.081 73.7641 273.512 74.8974 273.512 76.3289C273.512 77.0049 273.419 77.5815 273.227 78.052C273.034 78.5226 272.789 78.907 272.498 79.2118C272.199 79.5167 271.881 79.742 271.53 79.8878C271.179 80.0336 270.861 80.133 270.562 80.186V80.3451C270.894 80.365 271.265 80.4511 271.669 80.6036C272.08 80.7626 272.464 81.0078 272.829 81.3458C273.193 81.6838 273.505 82.1212 273.757 82.6514C274.009 83.1816 274.134 83.8178 274.134 84.5667C274.134 85.3156 274.015 86.0115 273.783 86.6543C273.551 87.2972 273.22 87.8539 272.802 88.3244C272.385 88.795 271.888 89.1661 271.318 89.4312C270.741 89.7029 270.118 89.8355 269.442 89.8355H261.171V71.6301H261.178ZM263.365 79.5034H268.402C269.27 79.5034 269.953 79.2847 270.436 78.8539C270.92 78.4165 271.165 77.7936 271.165 76.9784V76.0903C271.165 75.2752 270.92 74.6456 270.436 74.2148C269.953 73.7774 269.27 73.5653 268.402 73.5653H263.365V79.5034ZM263.365 87.9069H268.766C269.707 87.9069 270.443 87.6683 270.986 87.1912C271.523 86.714 271.795 86.0115 271.795 85.0903V84.2022C271.795 83.281 271.523 82.5785 270.986 82.1013C270.45 81.6242 269.707 81.3856 268.766 81.3856H263.365V87.9069Z" fill="white"/>
<path d="M276.355 89.8354V76.3752H278.442V78.8539H278.575C278.82 78.211 279.251 77.6344 279.88 77.1308C280.503 76.6271 281.365 76.3752 282.465 76.3752H283.274V78.4629H282.048C280.914 78.4629 280.033 78.6749 279.403 79.0991C278.767 79.5232 278.449 80.0601 278.449 80.7029V89.8288H276.355V89.8354Z" fill="white"/>
<path d="M285.328 73.2207C284.877 73.2207 284.553 73.1147 284.347 72.896C284.148 72.6773 284.049 72.3989 284.049 72.0477V71.7097C284.049 71.365 284.148 71.0801 284.347 70.8614C284.546 70.6427 284.871 70.5366 285.328 70.5366C285.779 70.5366 286.103 70.6427 286.309 70.8614C286.508 71.0801 286.607 71.365 286.607 71.7097V72.0477C286.607 72.3923 286.508 72.6773 286.309 72.896C286.103 73.1147 285.779 73.2207 285.328 73.2207ZM284.281 76.3753H286.369V89.8355H284.281V76.3753Z" fill="white"/>
<path d="M297.768 87.6683H297.662C296.846 89.3185 295.534 90.147 293.725 90.147C292.89 90.147 292.134 89.9813 291.458 89.6499C290.782 89.3185 290.199 88.848 289.722 88.2383C289.245 87.6286 288.88 86.8929 288.628 86.0181C288.377 85.1499 288.251 84.1757 288.251 83.0955C288.251 82.0152 288.377 81.041 288.628 80.1728C288.88 79.3046 289.245 78.5623 289.722 77.9526C290.199 77.3429 290.776 76.8724 291.458 76.541C292.141 76.2096 292.89 76.044 293.725 76.044C294.666 76.044 295.468 76.2494 296.137 76.6537C296.807 77.0579 297.317 77.6809 297.662 78.5292H297.768V70.5366H299.855V89.8355H297.768V87.6683ZM294.302 88.2979C294.772 88.2979 295.216 88.2383 295.647 88.1124C296.071 87.9931 296.442 87.8075 296.754 87.5755C297.065 87.3436 297.317 87.052 297.496 86.714C297.681 86.376 297.768 85.985 297.768 85.5476V80.5174C297.768 80.1529 297.675 79.8083 297.496 79.4835C297.31 79.1588 297.065 78.8871 296.754 78.6551C296.442 78.4298 296.071 78.2509 295.647 78.1183C295.223 77.9858 294.772 77.9195 294.302 77.9195C293.122 77.9195 292.187 78.2906 291.511 79.0329C290.835 79.7752 290.497 80.7494 290.497 81.9555V84.2619C290.497 85.468 290.835 86.4423 291.511 87.1845C292.187 87.9268 293.115 88.2979 294.302 88.2979Z" fill="white"/>
<path d="M313.991 91.3333C313.991 92.7184 313.448 93.739 312.361 94.3885C311.274 95.038 309.644 95.3627 307.47 95.3627C305.369 95.3627 303.852 95.0778 302.93 94.5012C302.009 93.9246 301.545 93.1094 301.545 92.0491C301.545 91.32 301.737 90.7501 302.122 90.3458C302.506 89.9349 303.023 89.6367 303.686 89.4445V89.1662C302.884 88.7884 302.486 88.1588 302.486 87.2972C302.486 86.6213 302.705 86.1043 303.136 85.7531C303.573 85.3952 304.13 85.1367 304.806 84.9578V84.8518C304.004 84.4674 303.388 83.9173 302.944 83.2015C302.5 82.4858 302.281 81.6574 302.281 80.7163C302.281 80.0337 302.4 79.4107 302.645 78.8341C302.891 78.2575 303.235 77.7671 303.673 77.3562C304.117 76.9453 304.647 76.6272 305.263 76.4019C305.88 76.1765 306.569 76.0639 307.338 76.0639C308.292 76.0639 309.147 76.2362 309.896 76.5874V76.3555C309.896 75.8253 310.015 75.3945 310.26 75.0499C310.505 74.7053 310.903 74.533 311.46 74.533H313.468V76.3754H310.91V77.2369C311.393 77.6544 311.778 78.1581 312.043 78.7413C312.315 79.3245 312.447 79.9806 312.447 80.7163C312.447 81.3989 312.328 82.0219 312.083 82.5984C311.838 83.175 311.493 83.6655 311.055 84.0763C310.611 84.4872 310.075 84.8054 309.452 85.0307C308.829 85.256 308.133 85.3687 307.364 85.3687C306.927 85.3687 306.496 85.3223 306.058 85.2361C305.608 85.3554 305.197 85.5344 304.832 85.773C304.468 86.0115 304.282 86.3363 304.282 86.7538C304.282 87.1514 304.475 87.4232 304.859 87.5623C305.243 87.7015 305.734 87.7678 306.343 87.7678H309.213C310.883 87.7678 312.096 88.0859 312.851 88.7155C313.614 89.3517 313.991 90.2265 313.991 91.3333ZM312.036 91.4791C312.036 90.9423 311.831 90.5115 311.427 90.1868C311.016 89.862 310.293 89.703 309.246 89.703H304.759C303.924 90.0874 303.507 90.6971 303.507 91.5255C303.507 92.1153 303.726 92.619 304.17 93.0365C304.614 93.4541 305.363 93.6595 306.423 93.6595H308.352C309.518 93.6595 310.419 93.4739 311.062 93.1094C311.712 92.7582 312.036 92.2081 312.036 91.4791ZM307.364 83.7052C308.252 83.7052 308.955 83.4931 309.478 83.0624C310.002 82.6316 310.26 81.9755 310.26 81.0874V80.3518C310.26 79.4637 310.002 78.801 309.478 78.3768C308.955 77.946 308.252 77.734 307.364 77.734C306.476 77.734 305.773 77.946 305.25 78.3768C304.726 78.8076 304.468 79.4637 304.468 80.3518V81.0874C304.468 81.9755 304.726 82.6382 305.25 83.0624C305.773 83.4931 306.476 83.7052 307.364 83.7052Z" fill="white"/>
<path d="M319.678 90.1471C318.756 90.1471 317.928 89.9814 317.186 89.65C316.444 89.3187 315.814 88.8481 315.284 88.2318C314.754 87.6154 314.343 86.8732 314.058 86.0116C313.773 85.1501 313.627 84.1825 313.627 83.1022C313.627 82.0418 313.773 81.0742 314.058 80.2061C314.343 79.3379 314.754 78.5956 315.284 77.9793C315.814 77.3629 316.45 76.8858 317.186 76.561C317.928 76.2296 318.756 76.064 319.678 76.064C320.579 76.064 321.388 76.2296 322.103 76.561C322.819 76.8924 323.422 77.343 323.926 77.9263C324.429 78.5095 324.814 79.1921 325.086 79.994C325.357 80.7893 325.49 81.6641 325.49 82.6184V83.6059H315.814V84.2289C315.814 84.8054 315.907 85.3356 316.086 85.8327C316.271 86.3297 316.53 86.7605 316.868 87.125C317.206 87.4895 317.623 87.7745 318.12 87.9866C318.617 88.192 319.174 88.2981 319.804 88.2981C320.652 88.2981 321.401 88.0992 322.03 87.695C322.667 87.2973 323.157 86.7207 323.502 85.9719L324.986 87.0455C324.549 87.9733 323.873 88.7222 322.952 89.2922C322.037 89.8621 320.943 90.1471 319.678 90.1471ZM319.678 77.8136C319.101 77.8136 318.584 77.913 318.114 78.1118C317.643 78.3106 317.239 78.589 316.901 78.9535C316.563 79.318 316.298 79.7421 316.106 80.2392C315.913 80.7296 315.821 81.2731 315.821 81.8629V82.0418H323.256V81.7569C323.256 80.5639 322.932 79.6096 322.276 78.8938C321.619 78.1715 320.751 77.8136 319.678 77.8136Z" fill="white"/>
</g>
<rect x="1.42059" y="0.5" width="499" height="499" rx="14.5" stroke="#B7D2FF" stroke-opacity="0.05"/>
<defs>
<filter id="filter0_f_29_10400" x="243.863" y="252.252" width="475.497" height="475.497" filterUnits="userSpaceOnUse" color-interpolation-filters="sRGB">
<feFlood flood-opacity="0" result="BackgroundImageFix"/>
<feBlend mode="normal" in="SourceGraphic" in2="BackgroundImageFix" result="shape"/>
<feGaussianBlur stdDeviation="91.55" result="effect1_foregroundBlur_29_10400"/>
</filter>
<filter id="filter1_f_29_10400" x="-171.158" y="281.29" width="344.156" height="344.156" filterUnits="userSpaceOnUse" color-interpolation-filters="sRGB">
<feFlood flood-opacity="0" result="BackgroundImageFix"/>
<feBlend mode="normal" in="SourceGraphic" in2="BackgroundImageFix" result="shape"/>
<feGaussianBlur stdDeviation="63.8" result="effect1_foregroundBlur_29_10400"/>
</filter>
<filter id="filter2_f_29_10400" x="106.142" y="-152.477" width="289.556" height="289.556" filterUnits="userSpaceOnUse" color-interpolation-filters="sRGB">
<feFlood flood-opacity="0" result="BackgroundImageFix"/>
<feBlend mode="normal" in="SourceGraphic" in2="BackgroundImageFix" result="shape"/>
<feGaussianBlur stdDeviation="50.15" result="effect1_foregroundBlur_29_10400"/>
</filter>
<filter id="filter3_bi_29_10400" x="-36.6746" y="129.047" width="575.349" height="236.37" filterUnits="userSpaceOnUse" color-interpolation-filters="sRGB">
<feFlood flood-opacity="0" result="BackgroundImageFix"/>
<feGaussianBlur in="BackgroundImageFix" stdDeviation="45.8081"/>
<feComposite in2="SourceAlpha" operator="in" result="effect1_backgroundBlur_29_10400"/>
<feBlend mode="normal" in="SourceGraphic" in2="effect1_backgroundBlur_29_10400" result="shape"/>
<feColorMatrix in="SourceAlpha" type="matrix" values="0 0 0 0 0 0 0 0 0 0 0 0 0 0 0 0 0 0 127 0" result="hardAlpha"/>
<feOffset dx="1.83232" dy="3.66464"/>
<feGaussianBlur stdDeviation="7.32929"/>
<feComposite in2="hardAlpha" operator="arithmetic" k2="-1" k3="1"/>
<feColorMatrix type="matrix" values="0 0 0 0 0.972549 0 0 0 0 0.972549 0 0 0 0 0.972549 0 0 0 0.06 0"/>
<feBlend mode="normal" in2="shape" result="effect2_innerShadow_29_10400"/>
</filter>
<filter id="filter4_bdi_29_10400" x="62.2708" y="227.992" width="38.4788" height="64.1313" filterUnits="userSpaceOnUse" color-interpolation-filters="sRGB">
<feFlood flood-opacity="0" result="BackgroundImageFix"/>
<feGaussianBlur in="BackgroundImageFix" stdDeviation="5.49697"/>
<feComposite in2="SourceAlpha" operator="in" result="effect1_backgroundBlur_29_10400"/>
<feColorMatrix in="SourceAlpha" type="matrix" values="0 0 0 0 0 0 0 0 0 0 0 0 0 0 0 0 0 0 127 0" result="hardAlpha"/>
<feMorphology radius="14.6586" operator="erode" in="SourceAlpha" result="effect2_dropShadow_29_10400"/>
<feOffset dy="29.3172"/>
<feGaussianBlur stdDeviation="10.9939"/>
<feComposite in2="hardAlpha" operator="out"/>
<feColorMatrix type="matrix" values="0 0 0 0 0 0 0 0 0 0 0 0 0 0 0 0 0 0 0.4 0"/>
<feBlend mode="multiply" in2="effect1_backgroundBlur_29_10400" result="effect2_dropShadow_29_10400"/>
<feBlend mode="normal" in="SourceGraphic" in2="effect2_dropShadow_29_10400" result="shape"/>
<feColorMatrix in="SourceAlpha" type="matrix" values="0 0 0 0 0 0 0 0 0 0 0 0 0 0 0 0 0 0 127 0" result="hardAlpha"/>
<feOffset/>
<feGaussianBlur stdDeviation="3.66464"/>
<feComposite in2="hardAlpha" operator="arithmetic" k2="-1" k3="1"/>
<feColorMatrix type="matrix" values="0 0 0 0 0.972549 0 0 0 0 0.972549 0 0 0 0 0.972549 0 0 0 0.25 0"/>
<feBlend mode="normal" in2="shape" result="effect3_innerShadow_29_10400"/>
</filter>
<filter id="filter5_d_29_10400" x="152.055" y="380.075" width="197.891" height="87.9516" filterUnits="userSpaceOnUse" color-interpolation-filters="sRGB">
<feFlood flood-opacity="0" result="BackgroundImageFix"/>
<feColorMatrix in="SourceAlpha" type="matrix" values="0 0 0 0 0 0 0 0 0 0 0 0 0 0 0 0 0 0 127 0" result="hardAlpha"/>
<feOffset dy="21.9879"/>
<feGaussianBlur stdDeviation="10.9939"/>
<feComposite in2="hardAlpha" operator="out"/>
<feColorMatrix type="matrix" values="0 0 0 0 0 0 0 0 0 0 0 0 0 0 0 0 0 0 0.3 0"/>
<feBlend mode="multiply" in2="BackgroundImageFix" result="effect1_dropShadow_29_10400"/>
<feBlend mode="normal" in="SourceGraphic" in2="effect1_dropShadow_29_10400" result="shape"/>
</filter>
<filter id="filter6_i_29_10400" x="176.771" y="60" width="40.4319" height="40.4319" filterUnits="userSpaceOnUse" color-interpolation-filters="sRGB">
<feFlood flood-opacity="0" result="BackgroundImageFix"/>
<feBlend mode="normal" in="SourceGraphic" in2="BackgroundImageFix" result="shape"/>
<feColorMatrix in="SourceAlpha" type="matrix" values="0 0 0 0 0 0 0 0 0 0 0 0 0 0 0 0 0 0 127 0" result="hardAlpha"/>
<feOffset/>
<feGaussianBlur stdDeviation="3.64504"/>
<feComposite in2="hardAlpha" operator="arithmetic" k2="-1" k3="1"/>
<feColorMatrix type="matrix" values="0 0 0 0 1 0 0 0 0 1 0 0 0 0 1 0 0 0 0.14 0"/>
<feBlend mode="normal" in2="shape" result="effect1_innerShadow_29_10400"/>
</filter>
<filter id="filter7_i_29_10400" x="189.008" y="68.2271" width="17.8541" height="11.9756" filterUnits="userSpaceOnUse" color-interpolation-filters="sRGB">
<feFlood flood-opacity="0" result="BackgroundImageFix"/>
<feBlend mode="normal" in="SourceGraphic" in2="BackgroundImageFix" result="shape"/>
<feColorMatrix in="SourceAlpha" type="matrix" values="0 0 0 0 0 0 0 0 0 0 0 0 0 0 0 0 0 0 127 0" result="hardAlpha"/>
<feOffset/>
<feGaussianBlur stdDeviation="1.32547"/>
<feComposite in2="hardAlpha" operator="arithmetic" k2="-1" k3="1"/>
<feColorMatrix type="matrix" values="0 0 0 0 1 0 0 0 0 1 0 0 0 0 1 0 0 0 0.39 0"/>
<feBlend mode="normal" in2="shape" result="effect1_innerShadow_29_10400"/>
</filter>
<filter id="filter8_i_29_10400" x="189.001" y="80.2158" width="11.9822" height="11.9822" filterUnits="userSpaceOnUse" color-interpolation-filters="sRGB">
<feFlood flood-opacity="0" result="BackgroundImageFix"/>
<feBlend mode="normal" in="SourceGraphic" in2="BackgroundImageFix" result="shape"/>
<feColorMatrix in="SourceAlpha" type="matrix" values="0 0 0 0 0 0 0 0 0 0 0 0 0 0 0 0 0 0 127 0" result="hardAlpha"/>
<feOffset/>
<feGaussianBlur stdDeviation="1.32547"/>
<feComposite in2="hardAlpha" operator="arithmetic" k2="-1" k3="1"/>
<feColorMatrix type="matrix" values="0 0 0 0 1 0 0 0 0 1 0 0 0 0 1 0 0 0 0.39 0"/>
<feBlend mode="normal" in2="shape" result="effect1_innerShadow_29_10400"/>
</filter>
<linearGradient id="paint0_linear_29_10400" x1="251" y1="213.792" x2="251" y2="453.368" gradientUnits="userSpaceOnUse">
<stop stop-color="#D9D9D9"/>
<stop offset="1" stop-color="#737373" stop-opacity="0"/>
</linearGradient>
<linearGradient id="paint1_linear_29_10400" x1="81.5102" y1="238.986" x2="88.6841" y2="257.095" gradientUnits="userSpaceOnUse">
<stop stop-color="white" stop-opacity="0.4"/>
<stop offset="0.4" stop-color="white" stop-opacity="0.01"/>
<stop offset="0.6" stop-color="white" stop-opacity="0.01"/>
<stop offset="1" stop-color="white" stop-opacity="0.1"/>
</linearGradient>
<linearGradient id="paint2_linear_29_10400" x1="251" y1="380.075" x2="257.244" y2="435.237" gradientUnits="userSpaceOnUse">
<stop stop-color="white" stop-opacity="0.4"/>
<stop offset="0.4" stop-color="white" stop-opacity="0.01"/>
<stop offset="0.6" stop-color="white" stop-opacity="0.01"/>
<stop offset="1" stop-color="white" stop-opacity="0.1"/>
</linearGradient>
<clipPath id="clip0_29_10400">
<rect x="0.920593" width="500" height="500" rx="15" fill="white"/>
</clipPath>
<clipPath id="clip1_29_10400">
<rect x="40.283" y="145.538" width="421.434" height="307.83" rx="14.6586" fill="white"/>
</clipPath>
<clipPath id="clip2_29_10400">
<rect x="40.283" y="145.538" width="421.434" height="307.83" rx="14.6586" fill="white"/>
</clipPath>
<clipPath id="clip3_29_10400">
<rect x="54.9415" y="220.663" width="392.117" height="53.1373" rx="10.9939" fill="white"/>
</clipPath>
</defs>
</svg>
