<svg width="148" height="40" viewBox="0 0 148 40" fill="none" xmlns="http://www.w3.org/2000/svg">
<g filter="url(#filter0_i_35_4019)">
<path d="M36.5422 35.6177C36.1881 36.0046 36.0046 36.1882 35.6177 36.5422C29.8939 41.2957 10.1652 41.0072 4.38227 36.5422C3.99543 36.1882 3.81185 36.0046 3.45779 35.6177C-1.00723 29.8348 -1.29571 10.1061 3.45779 4.38227C3.81185 3.99543 3.99543 3.81185 4.38227 3.45779C10.1652 -1.00723 29.8939 -1.29571 35.6177 3.45779C36.0046 3.81185 36.1881 3.99543 36.5422 4.38227C41.2957 10.1061 41.0072 29.8348 36.5422 35.6177Z" fill="#081428"/>
</g>
<path d="M29.7693 10.0406V12.1649C29.7693 13.2139 28.9169 14.0663 27.8679 14.0663H19.9279C19.423 14.0663 18.9378 14.2695 18.5838 14.6236C18.2297 14.9777 18.0265 15.4628 18.0265 15.9677V18.0855C18.0265 19.1345 17.1741 19.9869 16.1251 19.9869H14.0073C12.9583 19.9869 12.1059 19.1345 12.1059 18.0855V15.9677C12.1059 14.9186 12.9583 14.0663 14.0073 14.0663H16.1251C16.6299 14.0663 17.1151 13.863 17.4692 13.509L17.4757 13.5024C17.8298 13.1484 18.033 12.6632 18.033 12.1583V10.0406C18.033 8.99151 18.8854 8.13916 19.9344 8.13916H27.8744C28.9169 8.13916 29.7693 8.99151 29.7693 10.0406Z" fill="#6942E2"/>
<path d="M23.9536 21.9014V24.0257C23.9536 25.0748 23.1013 25.9271 22.0522 25.9271H20.2951C19.7902 25.9271 19.305 26.1304 18.9444 26.4844L18.5772 26.8582C18.2232 27.2122 18.0199 27.6974 18.0199 28.2023V29.9529C18.0199 31.0019 17.1676 31.8543 16.1185 31.8543H14.0008C12.9517 31.8543 12.0993 31.0019 12.0993 29.9529V27.8351C12.0993 26.786 12.9517 25.9337 14.0008 25.9337H15.7514C16.2562 25.9337 16.7414 25.737 17.0954 25.3764L17.4692 25.0092C17.8298 24.6552 18.0265 24.17 18.0265 23.6586V21.9014C18.0265 20.8524 18.8788 20 19.9279 20H22.0522C23.1013 20 23.9536 20.8524 23.9536 21.9014Z" fill="#6942E2"/>
<g filter="url(#filter1_i_35_4019)">
<path d="M29.7693 10.0406V12.1649C29.7693 13.2139 28.9169 14.0663 27.8679 14.0663H19.9279C19.423 14.0663 18.9378 14.2695 18.5838 14.6236C18.2297 14.9777 18.0265 15.4628 18.0265 15.9677V18.0855C18.0265 19.1345 17.1741 19.9869 16.1251 19.9869H14.0073C12.9583 19.9869 12.1059 19.1345 12.1059 18.0855V15.9677C12.1059 14.9186 12.9583 14.0663 14.0073 14.0663H16.1251C16.6299 14.0663 17.1151 13.863 17.4692 13.509L17.4757 13.5024C17.8298 13.1484 18.033 12.6632 18.033 12.1583V10.0406C18.033 8.99151 18.8854 8.13916 19.9344 8.13916H27.8744C28.9169 8.13916 29.7693 8.99151 29.7693 10.0406Z" fill="#6942E2"/>
</g>
<g filter="url(#filter2_i_35_4019)">
<path d="M23.9536 21.9014V24.0257C23.9536 25.0748 23.1013 25.9271 22.0522 25.9271H20.2951C19.7902 25.9271 19.305 26.1304 18.9444 26.4844L18.5772 26.8582C18.2232 27.2122 18.0199 27.6974 18.0199 28.2023V29.9529C18.0199 31.0019 17.1676 31.8543 16.1185 31.8543H14.0008C12.9517 31.8543 12.0993 31.0019 12.0993 29.9529V27.8351C12.0993 26.786 12.9517 25.9337 14.0008 25.9337H15.7514C16.2562 25.9337 16.7414 25.737 17.0954 25.3764L17.4692 25.0092C17.8298 24.6552 18.0265 24.17 18.0265 23.6586V21.9014C18.0265 20.8524 18.8788 20 19.9279 20H22.0522C23.1013 20 23.9536 20.8524 23.9536 21.9014Z" fill="#6942E2"/>
</g>
<path d="M49.9095 29.5172V11.5063H61.4949V14.5224H53.3189V18.8825H60.4393V21.8985H53.3189V29.5107H49.9095V29.5172Z" fill="#28E7C5"/>
<path d="M64.9502 14.0827C64.2618 14.0827 63.77 13.9254 63.4684 13.6172C63.1668 13.3091 63.016 12.9091 63.016 12.4305V11.9125C63.016 11.4339 63.1668 11.0339 63.4684 10.7258C63.77 10.4176 64.2618 10.2603 64.9502 10.2603C65.619 10.2603 66.1107 10.4176 66.4189 10.7258C66.727 11.0339 66.8844 11.4339 66.8844 11.9125V12.4305C66.8844 12.9091 66.727 13.3091 66.4189 13.6172C66.1107 13.9319 65.619 14.0827 64.9502 14.0827ZM63.298 16.0497H66.6025V29.5169H63.298V16.0497Z" fill="#28E7C5"/>
<path d="M69.1333 29.517V16.0499H72.4378V18.2922H72.5689C72.8443 17.571 73.277 16.9612 73.8737 16.476C74.4703 15.9843 75.2899 15.7417 76.339 15.7417C77.7355 15.7417 78.7977 16.2007 79.5385 17.112C80.2794 18.0234 80.6466 19.3216 80.6466 21.0066V29.5236H77.3421V21.3344C77.3421 20.3706 77.1716 19.6494 76.8241 19.1642C76.4766 18.6856 75.9128 18.443 75.1194 18.443C74.7719 18.443 74.4441 18.4889 74.1228 18.5872C73.8016 18.679 73.5196 18.8167 73.2705 19.0003C73.0213 19.1839 72.8181 19.4068 72.6607 19.6691C72.5034 19.9379 72.4312 20.2526 72.4312 20.6132V29.517H69.1333Z" fill="#28E7C5"/>
<path d="M83.5053 11.5063H90.9076C92.4025 11.5063 93.5762 11.926 94.4285 12.7718C95.2809 13.6176 95.707 14.7387 95.707 16.155C95.707 16.8237 95.6152 17.3941 95.4251 17.8597C95.235 18.3252 94.9924 18.7055 94.7039 19.0071C94.4088 19.3087 94.0941 19.5316 93.7466 19.6758C93.3991 19.8201 93.0844 19.9184 92.7894 19.9709V20.1282C93.1172 20.1479 93.4844 20.2331 93.8843 20.3839C94.2908 20.5413 94.6711 20.7839 95.0317 21.1183C95.3923 21.4527 95.7005 21.8854 95.9496 22.4099C96.1988 22.9344 96.3234 23.5639 96.3234 24.3048C96.3234 25.0456 96.2053 25.7341 95.9759 26.3701C95.7464 27.0061 95.4186 27.5568 95.0055 28.0223C94.5924 28.4878 94.1007 28.855 93.5368 29.1173C92.9664 29.3861 92.3501 29.5172 91.6813 29.5172H83.4987V11.5063H83.5053ZM85.6689 19.2955H90.6519C91.5108 19.2955 92.1862 19.0792 92.6648 18.653C93.1434 18.2203 93.386 17.604 93.386 16.7975V15.9189C93.386 15.1125 93.1434 14.4896 92.6648 14.0634C92.1862 13.6307 91.5108 13.4209 90.6519 13.4209H85.6689V19.2955ZM85.6689 27.6093H91.0125C91.9436 27.6093 92.6713 27.3732 93.209 26.9012C93.7401 26.4291 94.0089 25.7341 94.0089 24.8227V23.9441C94.0089 23.0328 93.7401 22.3378 93.209 21.8657C92.6779 21.3936 91.9436 21.1576 91.0125 21.1576H85.6689V27.6093Z" fill="white"/>
<path d="M98.5198 29.5171V16.2007H100.585V18.6528H100.716C100.959 18.0169 101.385 17.4464 102.008 16.9481C102.624 16.4498 103.477 16.2007 104.565 16.2007H105.365V18.266H104.152C103.031 18.266 102.159 18.4758 101.536 18.8954C100.906 19.3151 100.592 19.8461 100.592 20.4821V29.5105H98.5198V29.5171Z" fill="white"/>
<path d="M107.397 13.0797C106.952 13.0797 106.63 12.9748 106.427 12.7585C106.23 12.5421 106.132 12.2667 106.132 11.9192V11.5848C106.132 11.2439 106.23 10.962 106.427 10.7456C106.624 10.5292 106.945 10.4243 107.397 10.4243C107.843 10.4243 108.164 10.5292 108.368 10.7456C108.564 10.962 108.663 11.2439 108.663 11.5848V11.9192C108.663 12.2602 108.564 12.5421 108.368 12.7585C108.164 12.9748 107.843 13.0797 107.397 13.0797ZM106.361 16.2006H108.427V29.517H106.361V16.2006Z" fill="white"/>
<path d="M119.704 27.373H119.599C118.793 29.0056 117.494 29.8252 115.705 29.8252C114.878 29.8252 114.131 29.6613 113.462 29.3334C112.793 29.0056 112.216 28.5401 111.744 27.9369C111.272 27.3337 110.912 26.6059 110.663 25.7404C110.413 24.8815 110.289 23.9177 110.289 22.849C110.289 21.7803 110.413 20.8165 110.663 19.9576C110.912 19.0986 111.272 18.3643 111.744 17.7611C112.216 17.1579 112.787 16.6924 113.462 16.3646C114.138 16.0367 114.878 15.8728 115.705 15.8728C116.636 15.8728 117.429 16.0761 118.091 16.476C118.753 16.876 119.258 17.4923 119.599 18.3315H119.704V10.4243H121.769V29.517H119.704V27.373ZM116.275 27.9959C116.74 27.9959 117.18 27.9369 117.606 27.8123C118.026 27.6943 118.393 27.5107 118.701 27.2812C119.009 27.0518 119.258 26.7633 119.435 26.4289C119.619 26.0945 119.704 25.7077 119.704 25.2749V20.2985C119.704 19.9379 119.612 19.5969 119.435 19.2757C119.252 18.9544 119.009 18.6856 118.701 18.4561C118.393 18.2332 118.026 18.0562 117.606 17.925C117.186 17.7939 116.74 17.7283 116.275 17.7283C115.108 17.7283 114.183 18.0955 113.515 18.8298C112.846 19.5642 112.512 20.528 112.512 21.7213V24.003C112.512 25.1963 112.846 26.1601 113.515 26.8944C114.183 27.6287 115.101 27.9959 116.275 27.9959Z" fill="white"/>
<path d="M135.755 30.9988C135.755 32.3691 135.217 33.3788 134.142 34.0214C133.066 34.6639 131.453 34.9852 129.303 34.9852C127.224 34.9852 125.723 34.7033 124.812 34.1329C123.9 33.5624 123.441 32.756 123.441 31.7069C123.441 30.9857 123.631 30.4218 124.012 30.0219C124.392 29.6154 124.903 29.3203 125.559 29.1302V28.8548C124.766 28.4811 124.372 27.8582 124.372 27.0059C124.372 26.3371 124.589 25.8257 125.015 25.4782C125.448 25.1241 125.998 24.8684 126.667 24.6914V24.5865C125.874 24.2062 125.264 23.662 124.825 22.9539C124.385 22.2458 124.169 21.4262 124.169 20.4952C124.169 19.8199 124.287 19.2036 124.53 18.6331C124.772 18.0627 125.113 17.5775 125.546 17.171C125.985 16.7645 126.51 16.4498 127.12 16.2269C127.729 16.004 128.411 15.8925 129.172 15.8925C130.116 15.8925 130.962 16.063 131.703 16.4105V16.181C131.703 15.6565 131.821 15.2303 132.063 14.8893C132.306 14.5484 132.699 14.3779 133.25 14.3779H135.237V16.2007H132.706V17.053C133.184 17.4661 133.565 17.9644 133.827 18.5413C134.096 19.1183 134.227 19.7674 134.227 20.4952C134.227 21.1705 134.109 21.7868 133.866 22.3573C133.624 22.9277 133.283 23.4129 132.85 23.8194C132.411 24.2259 131.88 24.5406 131.263 24.7635C130.647 24.9864 129.959 25.0979 129.198 25.0979C128.765 25.0979 128.339 25.052 127.906 24.9668C127.46 25.0848 127.054 25.2618 126.693 25.4979C126.333 25.7339 126.149 26.0552 126.149 26.4682C126.149 26.8616 126.339 27.1304 126.72 27.2681C127.1 27.4058 127.585 27.4714 128.188 27.4714H131.027C132.679 27.4714 133.879 27.7861 134.627 28.409C135.381 29.0384 135.755 29.9039 135.755 30.9988ZM133.82 31.1431C133.82 30.612 133.617 30.1858 133.217 29.8645C132.811 29.5433 132.096 29.3859 131.06 29.3859H126.621C125.795 29.7662 125.382 30.3694 125.382 31.189C125.382 31.7725 125.598 32.2708 126.038 32.6839C126.477 33.0969 127.218 33.3002 128.267 33.3002H130.175C131.329 33.3002 132.221 33.1166 132.857 32.756C133.499 32.4085 133.82 31.8643 133.82 31.1431ZM129.198 23.4522C130.077 23.4522 130.772 23.2424 131.289 22.8162C131.807 22.39 132.063 21.741 132.063 20.8624V20.1346C132.063 19.256 131.807 18.6004 131.289 18.1807C130.772 17.7546 130.077 17.5447 129.198 17.5447C128.319 17.5447 127.624 17.7546 127.106 18.1807C126.588 18.6069 126.333 19.256 126.333 20.1346V20.8624C126.333 21.741 126.588 22.3966 127.106 22.8162C127.624 23.2424 128.319 23.4522 129.198 23.4522Z" fill="white"/>
<path d="M141.38 29.8253C140.469 29.8253 139.649 29.6614 138.915 29.3335C138.18 29.0057 137.558 28.5402 137.033 27.9304C136.509 27.3207 136.102 26.5863 135.82 25.734C135.538 24.8816 135.394 23.9244 135.394 22.8556C135.394 21.8066 135.538 20.8493 135.82 19.9904C136.102 19.1315 136.509 18.3972 137.033 17.7874C137.558 17.1777 138.187 16.7056 138.915 16.3843C139.649 16.0565 140.469 15.8926 141.38 15.8926C142.272 15.8926 143.072 16.0565 143.78 16.3843C144.488 16.7121 145.085 17.158 145.583 17.735C146.081 18.3119 146.461 18.9873 146.73 19.7806C146.999 20.5674 147.13 21.4329 147.13 22.377V23.3539H137.558V23.9703C137.558 24.5407 137.649 25.0652 137.826 25.557C138.01 26.0487 138.266 26.4749 138.6 26.8355C138.934 27.1961 139.348 27.478 139.839 27.6878C140.331 27.8911 140.882 27.996 141.505 27.996C142.344 27.996 143.085 27.7993 143.708 27.3993C144.337 27.006 144.822 26.4355 145.163 25.6946L146.632 26.7568C146.199 27.6747 145.53 28.4156 144.619 28.9795C143.714 29.5433 142.632 29.8253 141.38 29.8253ZM141.38 17.6235C140.81 17.6235 140.298 17.7219 139.833 17.9186C139.367 18.1153 138.967 18.3906 138.633 18.7512C138.298 19.1118 138.036 19.5315 137.846 20.0232C137.656 20.5084 137.564 21.046 137.564 21.6296V21.8066H144.921V21.5247C144.921 20.3445 144.599 19.4003 143.95 18.6922C143.301 17.9776 142.442 17.6235 141.38 17.6235Z" fill="white"/>
<defs>
<filter id="filter0_i_35_4019" x="0" y="0" width="40" height="40" filterUnits="userSpaceOnUse" color-interpolation-filters="sRGB">
<feFlood flood-opacity="0" result="BackgroundImageFix"/>
<feBlend mode="normal" in="SourceGraphic" in2="BackgroundImageFix" result="shape"/>
<feColorMatrix in="SourceAlpha" type="matrix" values="0 0 0 0 0 0 0 0 0 0 0 0 0 0 0 0 0 0 127 0" result="hardAlpha"/>
<feOffset/>
<feGaussianBlur stdDeviation="3.60611"/>
<feComposite in2="hardAlpha" operator="arithmetic" k2="-1" k3="1"/>
<feColorMatrix type="matrix" values="0 0 0 0 1 0 0 0 0 1 0 0 0 0 1 0 0 0 0.14 0"/>
<feBlend mode="normal" in2="shape" result="effect1_innerShadow_35_4019"/>
</filter>
<filter id="filter1_i_35_4019" x="12.1059" y="8.13916" width="17.6634" height="11.8477" filterUnits="userSpaceOnUse" color-interpolation-filters="sRGB">
<feFlood flood-opacity="0" result="BackgroundImageFix"/>
<feBlend mode="normal" in="SourceGraphic" in2="BackgroundImageFix" result="shape"/>
<feColorMatrix in="SourceAlpha" type="matrix" values="0 0 0 0 0 0 0 0 0 0 0 0 0 0 0 0 0 0 127 0" result="hardAlpha"/>
<feOffset/>
<feGaussianBlur stdDeviation="1.31131"/>
<feComposite in2="hardAlpha" operator="arithmetic" k2="-1" k3="1"/>
<feColorMatrix type="matrix" values="0 0 0 0 1 0 0 0 0 1 0 0 0 0 1 0 0 0 0.39 0"/>
<feBlend mode="normal" in2="shape" result="effect1_innerShadow_35_4019"/>
</filter>
<filter id="filter2_i_35_4019" x="12.0993" y="20" width="11.8543" height="11.8545" filterUnits="userSpaceOnUse" color-interpolation-filters="sRGB">
<feFlood flood-opacity="0" result="BackgroundImageFix"/>
<feBlend mode="normal" in="SourceGraphic" in2="BackgroundImageFix" result="shape"/>
<feColorMatrix in="SourceAlpha" type="matrix" values="0 0 0 0 0 0 0 0 0 0 0 0 0 0 0 0 0 0 127 0" result="hardAlpha"/>
<feOffset/>
<feGaussianBlur stdDeviation="1.31131"/>
<feComposite in2="hardAlpha" operator="arithmetic" k2="-1" k3="1"/>
<feColorMatrix type="matrix" values="0 0 0 0 1 0 0 0 0 1 0 0 0 0 1 0 0 0 0.39 0"/>
<feBlend mode="normal" in2="shape" result="effect1_innerShadow_35_4019"/>
</filter>
</defs>
</svg>
